<svg style="position:absolute;width:0;height:0" xmlns="http://www.w3.org/2000/svg" overflow="hidden"><defs><symbol id="left" viewBox="0 0 32 32"><path fill="var(--color1, #fff)" d="M30.615 14.615H4.729l6.177-6.177a1.385 1.385 0 1 0-1.959-1.959L.406 15.02a1.385 1.385 0 0 0 0 1.959l8.541 8.542a1.38 1.38 0 0 0 1.958 0 1.385 1.385 0 0 0 0-1.959l-6.177-6.177h25.886a1.385 1.385 0 1 0 0-2.77z"/></symbol><symbol id="right" viewBox="0 0 32 32"><path fill="var(--color1, #fff)" d="M31.564 14.948l-9.523-9.523a1.488 1.488 0 0 0-2.104 2.104l6.982 6.982H1.487a1.488 1.488 0 1 0 0 2.976h25.432l-6.982 6.983a1.488 1.488 0 0 0 2.104 2.104l9.522-9.523a1.488 1.488 0 0 0 0-2.104z"/></symbol><symbol id="facebook" viewBox="0 0 32 32"><path d="M23.999.007L19.849 0c-4.662 0-7.675 3.091-7.675 7.875v3.631H8.002a.651.651 0 0 0-.652.652v5.261c0 .361.292.652.652.652h4.172v13.275c0 .361.292.653.652.653h5.444a.651.651 0 0 0 .652-.652V18.072H23.8a.651.651 0 0 0 .652-.652l.002-5.261a.652.652 0 0 0-.653-.652h-4.88V8.429c0-1.479.353-2.23 2.28-2.23l2.795-.001c.36 0 .652-.292.652-.652V.661a.652.652 0 0 0-.652-.652z"/></symbol><symbol id="google" viewBox="0 0 32 32"><path d="M20.694 0h-7.632C9.661 0 7.307.746 5.188 2.496c-1.666 1.438-2.66 3.527-2.66 5.589 0 3.177 2.422 6.554 6.911 6.554.432 0 .909-.044 1.331-.083l-.062.151c-.18.432-.351.839-.351 1.476 0 1.239.598 2.004 1.176 2.742l.073.094-.129.009c-1.854.127-5.304.364-7.825 1.913C.675 22.711.444 25.285.444 26.032c0 2.97 2.768 5.969 8.953 5.969 7.191 0 10.954-3.968 10.954-7.886.001-2.898-1.699-4.329-3.503-5.849l-1.522-1.184c-.47-.39-1.056-.874-1.056-1.773 0-.883.586-1.466 1.103-1.981l.054-.055c1.644-1.294 3.506-2.762 3.506-5.937 0-3.192-1.995-4.842-2.954-5.634h2.533a.17.17 0 0 0 .088-.025L20.782.305c.062-.04.091-.115.071-.186S20.768 0 20.694 0zm-9.255 30.251c-4.384 0-7.329-2.047-7.329-5.095 0-1.99 1.205-3.436 3.577-4.296 1.9-.639 4.353-.671 4.377-.671.415 0 .625 0 .956.041 3.067 2.183 4.541 3.329 4.541 5.512 0 2.781-2.346 4.508-6.123 4.508zm-.041-16.782c-3.679 0-5.206-4.836-5.206-7.425 0-1.317.299-2.327.915-3.09.669-.837 1.813-1.377 2.917-1.377 3.378 0 5.246 4.541 5.246 7.679 0 .495 0 2.001-1.04 3.047-.7.698-1.838 1.167-2.832 1.167zm19.992 1.477h-4.021v-4.007a.165.165 0 0 0-.165-.165h-1.73a.165.165 0 0 0-.165.165v4.007h-4.001a.165.165 0 0 0-.165.165v1.753c0 .091.074.165.165.165h4.001v4.033c0 .091.074.165.165.165h1.73a.165.165 0 0 0 .165-.165v-4.034h4.021a.165.165 0 0 0 .165-.165v-1.752a.165.165 0 0 0-.165-.165z"/></symbol><symbol id="letter" viewBox="0 0 32 32"><path d="M0 4.694v22.613h32V4.694H0zm30.638 21.251H1.361V6.055h29.277v19.89z"/><path d="M4.82 14.985h12.828v1.362H4.82zm-1.682 6.94h16.193v1.362H3.138zm3.542-3.469h9.108v1.362H6.68zm14.5-8.85a.83.83 0 0 1 .828-.828h5.079a.83.83 0 0 1 .828.828v2.661a.829.829 0 0 1-.828.827h-1.769v1.362h1.769a2.192 2.192 0 0 0 2.189-2.189V9.606a2.192 2.192 0 0 0-2.189-2.189h-5.079a2.192 2.192 0 0 0-2.189 2.19v3.342h1.362V9.607z"/></symbol><symbol id="linkedin" viewBox="0 0 32 32"><path d="M32 19.458v11.831h-6.859V20.251c0-2.773-.992-4.665-3.475-4.665-1.895 0-3.023 1.275-3.519 2.509-.181.441-.228 1.055-.228 1.672v11.522h-6.861s.092-18.695 0-20.632h6.86v2.925c-.014.022-.032.045-.045.067h.045v-.067c.911-1.404 2.539-3.409 6.183-3.409 4.514 0 7.898 2.949 7.898 9.286zM3.882.711C1.535.711 0 2.25 0 4.275c0 1.981 1.491 3.567 3.791 3.567h.046c2.393 0 3.881-1.586 3.881-3.567C7.673 2.25 6.23.711 3.883.711zM.407 31.289h6.858V10.657H.407v20.632z"/></symbol><symbol id="smartphone" viewBox="0 0 32 32"><path d="M23.133 0H8.866a2.167 2.167 0 0 0-2.161 2.161v27.675c0 1.191.973 2.163 2.161 2.163h14.267a2.166 2.166 0 0 0 2.161-2.161V2.161A2.167 2.167 0 0 0 23.133 0zm-9.415 1.558h4.564a.262.262 0 0 1 0 .524h-4.564a.261.261 0 0 1 0-.524zM16 30.919a1.082 1.082 0 1 1 .002-2.164A1.082 1.082 0 0 1 16 30.92zM23.79 28H8.211V3.429H23.79V28z"/></symbol><symbol id="twitter" viewBox="0 0 32 32"><path d="M32 6.079a13.112 13.112 0 0 1-3.769 1.034 6.588 6.588 0 0 0 2.885-3.629 13.24 13.24 0 0 1-4.171 1.594 6.545 6.545 0 0 0-4.791-2.074 6.566 6.566 0 0 0-6.395 8.059A18.633 18.633 0 0 1 2.23 4.204a6.515 6.515 0 0 0-.888 3.299 6.56 6.56 0 0 0 2.92 5.463 6.56 6.56 0 0 1-2.973-.824v.082a6.572 6.572 0 0 0 5.265 6.437 6.65 6.65 0 0 1-1.73.23c-.424 0-.834-.042-1.236-.122a6.567 6.567 0 0 0 6.131 4.559 13.17 13.17 0 0 1-8.152 2.806c-.53 0-1.052-.032-1.566-.09a18.554 18.554 0 0 0 10.062 2.953c12.076 0 18.676-10.002 18.676-18.677l-.022-.85A13.122 13.122 0 0 0 32 6.078z"/></symbol><symbol id="zoom" viewBox="0 0 32 32"><path fill="var(--color1, #fff)" d="M12.948 26.102c3.188 0 6.102-1.172 8.353-3.098l8.678 8.678a1.003 1.003 0 1 0 1.418-1.418l-8.679-8.678a12.802 12.802 0 0 0 3.099-8.354c0-7.098-5.773-12.87-12.87-12.87S.076 6.135.076 13.232c-.001 7.096 5.774 12.87 12.871 12.87zm0-23.735c5.989 0 10.864 4.874 10.864 10.865s-4.875 10.864-10.864 10.864c-5.992 0-10.866-4.873-10.866-10.864S6.955 2.367 12.948 2.367z"/><path fill="var(--color1, #fff)" d="M9.075 14.236h2.521v2.521a1.003 1.003 0 1 0 2.006 0v-2.521h2.522a1.002 1.002 0 0 0 0-2.006h-2.521V9.708c0-.553-.449-1.002-1.002-1.002h-.002c-.554 0-1.002.449-1.002 1.002v2.521H9.076a1.003 1.003 0 1 0 0 2.006z"/></symbol></defs></svg>