<svg style="position: absolute; width: 0; height: 0; overflow: hidden;" version="1.1" xmlns="http://www.w3.org/2000/svg" xmlns:xlink="http://www.w3.org/1999/xlink">
<defs>
<symbol id="left" viewBox="0 0 32 32">
<title>arrow-left</title>
<path fill="#fff" style="fill: var(--color1, #fff)" d="M30.615 14.615h-25.886l6.177-6.177c0.541-0.541 0.541-1.418 0-1.959s-1.418-0.541-1.959 0l-8.541 8.541c-0.541 0.541-0.541 1.418 0 1.959l8.541 8.542c0.271 0.271 0.625 0.406 0.979 0.406s0.709-0.135 0.979-0.406c0.541-0.541 0.541-1.418 0-1.959l-6.177-6.177h25.886c0.765 0 1.385-0.62 1.385-1.385s-0.62-1.385-1.385-1.385z"></path>
</symbol>
<symbol id="right" viewBox="0 0 32 32">
<title>arrow-right</title>
<path fill="#fff" style="fill: var(--color1, #fff)" d="M31.564 14.948l-9.523-9.523c-0.581-0.581-1.523-0.581-2.104 0s-0.581 1.523 0 2.104l6.982 6.982h-25.432c-0.822 0-1.488 0.666-1.488 1.488s0.666 1.488 1.488 1.488h25.432l-6.982 6.983c-0.581 0.581-0.581 1.523 0 2.104 0.29 0.29 0.671 0.436 1.052 0.436s0.762-0.145 1.052-0.436l9.522-9.523c0.581-0.581 0.581-1.523 0-2.104z"></path>
</symbol>
<symbol id="facebook" viewBox="0 0 32 32">
<title>facebook</title>
<path d="M23.999 0.007l-4.15-0.007c-4.662 0-7.675 3.091-7.675 7.875v3.631h-4.172c-0.361 0-0.652 0.292-0.652 0.652v5.261c0 0.361 0.292 0.652 0.652 0.652h4.172v13.275c0 0.361 0.292 0.653 0.652 0.653h5.444c0.361 0 0.652-0.292 0.652-0.652v-13.275h4.878c0.361 0 0.652-0.292 0.652-0.652l0.002-5.261c0-0.173-0.069-0.339-0.191-0.461s-0.289-0.191-0.462-0.191h-4.88v-3.078c0-1.479 0.353-2.23 2.28-2.23l2.795-0.001c0.36 0 0.652-0.292 0.652-0.652v-4.885c0-0.36-0.292-0.652-0.652-0.652z"></path>
</symbol>
<symbol id="google" viewBox="0 0 32 32">
<title>google</title>
<path d="M20.694 0h-7.632c-3.401 0-5.755 0.746-7.874 2.496-1.666 1.438-2.66 3.527-2.66 5.589 0 3.177 2.422 6.554 6.911 6.554 0.432 0 0.909-0.044 1.331-0.083l-0.062 0.151c-0.18 0.432-0.351 0.839-0.351 1.476 0 1.239 0.598 2.004 1.176 2.742l0.073 0.094-0.129 0.009c-1.854 0.127-5.304 0.364-7.825 1.913-2.977 1.77-3.208 4.344-3.208 5.091 0 2.97 2.768 5.969 8.953 5.969 7.191 0 10.954-3.968 10.954-7.886 0.001-2.898-1.699-4.329-3.503-5.849l-1.522-1.184c-0.47-0.39-1.056-0.874-1.056-1.773 0-0.883 0.586-1.466 1.103-1.981l0.054-0.055c1.644-1.294 3.506-2.762 3.506-5.937 0-3.192-1.995-4.842-2.954-5.634h2.533c0.031 0 0.062-0.009 0.088-0.025l2.182-1.372c0.062-0.040 0.091-0.115 0.071-0.186s-0.085-0.119-0.159-0.119zM11.439 30.251c-4.384 0-7.329-2.047-7.329-5.095 0-1.99 1.205-3.436 3.577-4.296 1.9-0.639 4.353-0.671 4.377-0.671 0.415 0 0.625 0 0.956 0.041 3.067 2.183 4.541 3.329 4.541 5.512 0 2.781-2.346 4.508-6.123 4.508zM11.398 13.469c-3.679 0-5.206-4.836-5.206-7.425 0-1.317 0.299-2.327 0.915-3.090 0.669-0.837 1.813-1.377 2.917-1.377 3.378 0 5.246 4.541 5.246 7.679 0 0.495 0 2.001-1.040 3.047-0.7 0.698-1.838 1.167-2.832 1.167zM31.39 14.946h-4.021v-4.007c0-0.091-0.074-0.165-0.165-0.165h-1.73c-0.091 0-0.165 0.074-0.165 0.165v4.007h-4.001c-0.091 0-0.165 0.074-0.165 0.165v1.753c0 0.091 0.074 0.165 0.165 0.165h4.001v4.033c0 0.091 0.074 0.165 0.165 0.165h1.73c0.091 0 0.165-0.074 0.165-0.165v-4.034h4.021c0.091 0 0.165-0.074 0.165-0.165v-1.752c0-0.092-0.074-0.165-0.165-0.165z"></path>
</symbol>
<symbol id="letter" viewBox="0 0 32 32">
<title>letter</title>
<path d="M0 4.694v22.613h32v-22.613h-32zM30.638 25.945h-29.277v-19.89h29.277v19.89z"></path>
<path d="M4.82 14.985h12.828v1.362h-12.828zM3.138 21.925h16.193v1.362h-16.193zM6.68 18.456h9.108v1.362h-9.108zM21.18 9.606c0-0.456 0.372-0.828 0.828-0.828h5.079c0.456 0 0.828 0.372 0.828 0.828v2.661c0 0.456-0.372 0.827-0.828 0.827h-1.769v1.362h1.769c1.207 0 2.189-0.982 2.189-2.189v-2.661c0-1.207-0.982-2.189-2.189-2.189h-5.079c-1.207 0-2.189 0.982-2.189 2.19v3.342h1.362v-3.342z"></path>
</symbol>
<symbol id="linkedin" viewBox="0 0 32 32">
<title>linkedin</title>
<path d="M32 19.458v11.831h-6.859v-11.038c0-2.773-0.992-4.665-3.475-4.665-1.895 0-3.023 1.275-3.519 2.509-0.181 0.441-0.228 1.055-0.228 1.672v11.522h-6.861s0.092-18.695 0-20.632h6.86v2.925c-0.014 0.022-0.032 0.045-0.045 0.067h0.045v-0.067c0.911-1.404 2.539-3.409 6.183-3.409 4.514 0 7.898 2.949 7.898 9.286zM3.882 0.711c-2.347 0-3.882 1.539-3.882 3.564 0 1.981 1.491 3.567 3.791 3.567h0.046c2.393 0 3.881-1.586 3.881-3.567-0.045-2.025-1.488-3.564-3.835-3.564zM0.407 31.289h6.858v-20.632h-6.858v20.632z"></path>
</symbol>
<symbol id="smartphone" viewBox="0 0 32 32">
<title>smartphone</title>
<path d="M23.133 0h-14.267c-1.189 0-2.161 0.972-2.161 2.161v27.675c0 1.191 0.973 2.163 2.161 2.163h14.267c1.189 0 2.161-0.971 2.161-2.161v-27.677c0-1.189-0.973-2.161-2.161-2.161zM13.718 1.558h4.564c0.144 0 0.262 0.117 0.262 0.262s-0.117 0.262-0.262 0.262h-4.564c-0.144 0-0.261-0.117-0.261-0.262s0.117-0.262 0.261-0.262zM16 30.919c-0.597 0-1.081-0.485-1.081-1.082s0.485-1.081 1.081-1.081 1.081 0.483 1.081 1.081-0.485 1.082-1.081 1.082zM23.79 28h-15.579v-24.571h15.579v24.571z"></path>
</symbol>
<symbol id="twitter" viewBox="0 0 32 32">
<title>twitter</title>
<path d="M32 6.079c-1.178 0.522-2.442 0.876-3.769 1.034 1.356-0.812 2.394-2.1 2.885-3.629-1.272 0.752-2.676 1.298-4.171 1.594-1.198-1.278-2.901-2.074-4.791-2.074-3.625 0-6.565 2.94-6.565 6.563 0 0.514 0.058 1.016 0.17 1.496-5.455-0.274-10.292-2.887-13.529-6.859-0.566 0.968-0.888 2.096-0.888 3.299 0 2.278 1.16 4.287 2.92 5.463-1.076-0.036-2.088-0.332-2.973-0.824v0.082c0 3.179 2.264 5.833 5.265 6.437-0.55 0.148-1.13 0.23-1.73 0.23-0.424 0-0.834-0.042-1.236-0.122 0.836 2.61 3.259 4.507 6.131 4.559-2.246 1.76-5.077 2.806-8.152 2.806-0.53 0-1.052-0.032-1.566-0.090 2.906 1.866 6.355 2.953 10.062 2.953 12.076 0 18.676-10.002 18.676-18.677l-0.022-0.85c1.289-0.92 2.405-2.076 3.283-3.392z"></path>
</symbol>
<symbol id="zoom" viewBox="0 0 32 32">
<title>zoom</title>
<path fill="#fff" style="fill: var(--color1, #fff)" d="M12.948 26.102c3.188 0 6.102-1.172 8.353-3.098l8.678 8.678c0.181 0.181 0.432 0.294 0.709 0.294 0.554 0 1.003-0.449 1.003-1.003 0-0.277-0.112-0.528-0.294-0.709l-8.679-8.678c1.927-2.25 3.099-5.165 3.099-8.354 0-7.098-5.773-12.87-12.87-12.87s-12.871 5.773-12.871 12.87c-0.001 7.096 5.774 12.87 12.871 12.87zM12.948 2.367c5.989 0 10.864 4.874 10.864 10.865s-4.875 10.864-10.864 10.864c-5.992 0-10.866-4.873-10.866-10.864s4.873-10.865 10.866-10.865z"></path>
<path fill="#fff" style="fill: var(--color1, #fff)" d="M9.075 14.236h2.521v2.521c0 0.554 0.449 1.003 1.003 1.003s1.003-0.449 1.003-1.003v0-2.521h2.522c0.554 0 1.002-0.449 1.002-1.003s-0.448-1.003-1.002-1.003h-2.521v-2.521c0-0 0-0 0-0.001 0-0.553-0.449-1.002-1.002-1.002-0 0-0.001 0-0.001 0h0c-0 0-0 0-0.001 0-0.554 0-1.002 0.449-1.002 1.002v0 2.521h-2.521c-0.554 0-1.003 0.449-1.003 1.003s0.449 1.003 1.003 1.003v0z"></path>
</symbol>
</defs>
</svg>
