<svg xmlns="http://www.w3.org/2000/svg" viewBox="0 0 490 490"><path d="M0 71.87V418.13h490V71.87H0zm469.15 325.41H20.85V92.72h448.3v304.56z"/><path d="M73.803 229.463h196.425v20.85H73.803zM48.045 335.724h247.952v20.852H48.045zM102.29 282.6h139.462v20.85H102.29zM324.322 147.097c0-6.984 5.692-12.675 12.675-12.675h77.775c6.984 0 12.675 5.69 12.675 12.675v40.745c0 6.985-5.69 12.666-12.675 12.666H387.69v20.852h27.082c18.49 0 33.526-15.038 33.526-33.518v-40.745c0-18.488-15.038-33.526-33.526-33.526h-77.775c-18.488 0-33.526 15.04-33.526 33.527v51.17h20.852v-51.17z"/></svg>